<svg width="256" height="256" viewBox="0 0 72 72" fill="none" xmlns="http://www.w3.org/2000/svg">
  <rect width="72" height="72" rx="18" fill="#09070F"/>
  <path d="M36 7.5C45.4 15.2 51.4 23.8 53.8 33.2C56.1 42 54.3 50.6 48.5 58.4C43.5 64.9 36.8 68.5 28.4 69.2C33.6 64.7 36.7 59.4 37.7 53.3C38.6 47.3 36.8 41.7 32.4 36.4C29.2 32.6 27.6 28.6 27.7 24.4C27.8 19.4 30.6 13.8 36 7.5Z" fill="url(#flame)"/>
  <path d="M46.9 17.6C51.1 24 53.2 30.5 53.2 37.1C53.2 43.2 50.8 48.9 46 54.2C41.9 58.7 37 61.2 31.4 61.6C35.3 57.8 37.6 53.7 38.2 49.3C38.9 44.6 37.5 40.1 33.9 35.8C31.7 33.1 30.6 30.2 30.7 27.1C30.7 24.1 31.8 20.8 33.9 17.2L36.5 21.7C38 23.9 40.2 25 43 25C44.7 25 46 24.7 47 24.1C46.1 21.8 46 19.6 46.9 17.6Z" fill="url(#core)"/>
  <path d="M36 21L47.8 40.8L36 51.2L24.2 40.8L36 21Z" fill="url(#blade)"/>
  <path d="M36 26.4L43 38.2L36 44.4L29 38.2L36 26.4Z" fill="#06050C" fill-opacity="0.72"/>
  <defs>
    <linearGradient id="flame" x1="36" y1="7.5" x2="21" y2="68" gradientUnits="userSpaceOnUse">
      <stop stop-color="#F4EEFF"/>
      <stop offset="0.34" stop-color="#C06CFF"/>
      <stop offset="0.7" stop-color="#F151B8"/>
      <stop offset="1" stop-color="#FF9652"/>
    </linearGradient>
    <linearGradient id="core" x1="41.95" y1="17.2" x2="26.82" y2="59.2" gradientUnits="userSpaceOnUse">
      <stop stop-color="#FFD2A9"/>
      <stop offset="0.4" stop-color="#FF9D68"/>
      <stop offset="1" stop-color="#D24C9D"/>
    </linearGradient>
    <linearGradient id="blade" x1="36" y1="21" x2="36" y2="51.2" gradientUnits="userSpaceOnUse">
      <stop stop-color="#FFF7ED"/>
      <stop offset="1" stop-color="#F6C4FF"/>
    </linearGradient>
  </defs>
</svg>
